<svg width="22" height="23" viewBox="0 0 22 23" fill="none" xmlns="http://www.w3.org/2000/svg">
<path d="M1 11.5C1 17.023 5.477 21.5 11 21.5C16.523 21.5 21 17.023 21 11.5C21 5.977 16.523 1.5 11 1.5C5.477 1.5 1 5.977 1 11.5Z" stroke="white" stroke-width="1.5" stroke-linecap="round" stroke-linejoin="round"/>
<path d="M11.9989 1.55005C11.9989 1.55005 14.9989 5.50005 14.9989 11.5C14.9989 17.5 11.9989 21.4501 11.9989 21.4501M9.99891 21.4501C9.99891 21.4501 6.99891 17.5 6.99891 11.5C6.99891 5.50005 9.99891 1.55005 9.99891 1.55005M1.62891 15H20.3689M1.62891 8.00005H20.3689" stroke="white" stroke-width="1.5" stroke-linecap="round" stroke-linejoin="round"/>
</svg>
