<svg width="24" height="25" viewBox="0 0 24 25" fill="none" xmlns="http://www.w3.org/2000/svg">
<path d="M19.605 8.23559L12.5775 15.1521C12.4242 15.3038 12.2172 15.3889 12.0015 15.3889C11.7859 15.3889 11.5789 15.3038 11.4255 15.1521L4.39654 8.23709C4.24226 8.08548 4.0346 8.00052 3.81829 8.00052C3.60198 8.00052 3.39432 8.08548 3.24004 8.23709C3.16407 8.31116 3.10369 8.39968 3.06246 8.49745C3.02124 8.59521 3 8.70024 3 8.80634C3 8.91244 3.02124 9.01747 3.06246 9.11524C3.10369 9.213 3.16407 9.30153 3.24004 9.37559L10.266 16.2906C10.7288 16.745 11.3515 16.9996 12 16.9996C12.6486 16.9996 13.2713 16.745 13.734 16.2906L20.76 9.37559C20.8362 9.3015 20.8968 9.21289 20.9382 9.11498C20.9795 9.01708 21.0009 8.91187 21.0009 8.80559C21.0009 8.69931 20.9795 8.59411 20.9382 8.4962C20.8968 8.3983 20.8362 8.30968 20.76 8.23559C20.6058 8.08398 20.3981 7.99902 20.1818 7.99902C19.9655 7.99902 19.7578 8.08398 19.6035 8.23559" fill="white"/>
</svg>
