<svg width="40" height="40" viewBox="0 0 40 40" fill="none" xmlns="http://www.w3.org/2000/svg">
<path d="M6.66927 19.9999C6.66927 16.4099 8.0876 13.1516 10.3943 10.7549C10.5976 10.9399 10.7726 11.1749 10.9043 11.4716C11.2443 12.2333 11.2443 13.0183 11.2443 13.7133C11.2443 14.2599 11.2443 14.7799 11.4193 15.1549C11.6593 15.6683 12.6959 15.8883 13.6109 16.0783L13.6443 16.0866C13.9609 16.1533 14.2859 16.2199 14.5826 16.3033C15.4259 16.5366 16.0793 17.2949 16.6009 17.9033C16.8176 18.1549 17.1393 18.5266 17.3009 18.6199C17.3843 18.5599 17.6526 18.2683 17.7843 17.7899C17.8876 17.4233 17.8576 17.0999 17.7093 16.9233C16.7759 15.8233 16.8276 13.7066 17.1159 12.9249C17.5693 11.6933 18.9859 11.7849 20.0226 11.8516H20.0326C20.4159 11.8766 20.7759 11.9016 21.0459 11.8666C21.8309 11.7666 22.2043 10.8399 22.4376 10.2599C22.5126 10.0749 22.5726 9.92492 22.6276 9.84992C23.0693 9.24492 24.3343 8.36325 25.2559 7.74159C26.9734 8.48009 28.517 9.5705 29.787 10.9424C31.057 12.3144 32.0253 13.9373 32.6293 15.7066C34.0373 16.1854 35.355 16.8969 36.5276 17.8116C35.4559 9.64159 28.4659 3.33325 20.0026 3.33325C10.7976 3.33325 3.33594 10.7949 3.33594 19.9999C3.33594 28.4633 9.64427 35.4533 17.8143 36.5249C16.8997 35.3522 16.1882 34.0345 15.7093 32.6266C13.0729 31.7291 10.7835 30.0289 9.16227 27.7645C7.54105 25.5 6.66929 22.7849 6.66927 19.9999ZM28.3359 21.6666C26.5678 21.6666 24.8721 22.369 23.6219 23.6192C22.3716 24.8694 21.6693 26.5651 21.6693 28.3333C21.6693 30.1014 22.3716 31.7971 23.6219 33.0473C24.8721 34.2975 26.5678 34.9999 28.3359 34.9999C30.104 34.9999 31.7997 34.2975 33.05 33.0473C34.3002 31.7971 35.0026 30.1014 35.0026 28.3333C35.0026 26.5651 34.3002 24.8694 33.05 23.6192C31.7997 22.369 30.104 21.6666 28.3359 21.6666ZM18.3359 28.3333C18.3359 27.02 18.5946 25.7197 19.0971 24.5064C19.5997 23.2932 20.3363 22.1908 21.2649 21.2622C22.1935 20.3336 23.2958 19.597 24.5091 19.0945C25.7224 18.5919 27.0227 18.3333 28.3359 18.3333C29.6492 18.3333 30.9495 18.5919 32.1628 19.0945C33.376 19.597 34.4784 20.3336 35.407 21.2622C36.3356 22.1908 37.0722 23.2932 37.5747 24.5064C38.0773 25.7197 38.3359 27.02 38.3359 28.3333C38.3359 30.9854 37.2824 33.529 35.407 35.4043C33.5316 37.2797 30.9881 38.3333 28.3359 38.3333C25.6838 38.3333 23.1402 37.2797 21.2649 35.4043C19.3895 33.529 18.3359 30.9854 18.3359 28.3333ZM26.6693 23.3333V29.9999H33.3359V26.6666H30.0026V23.3333H26.6693Z" fill="white"/>
</svg>
