<svg width="40" height="40" viewBox="0 0 40 40" fill="none" xmlns="http://www.w3.org/2000/svg">
<path d="M21.6693 6.66659L20.0026 11.5566L18.3359 6.66659C18.2461 6.40175 18.2206 6.1193 18.2617 5.84266C18.3027 5.56601 18.4091 5.30314 18.5721 5.07582C18.735 4.84849 18.9497 4.66327 19.1985 4.53549C19.4473 4.40771 19.7229 4.34106 20.0026 4.34106C20.2823 4.34106 20.5579 4.40771 20.8067 4.53549C21.0555 4.66327 21.2702 4.84849 21.4332 5.07582C21.5961 5.30314 21.7025 5.56601 21.7435 5.84266C21.7846 6.1193 21.7591 6.40175 21.6693 6.66659ZM6.66928 18.3333L11.5593 19.9999L6.66928 21.6666C6.40443 21.7565 6.12199 21.7819 5.84534 21.7409C5.5687 21.6998 5.30582 21.5934 5.0785 21.4305C4.85118 21.2676 4.66595 21.0528 4.53818 20.804C4.4104 20.5553 4.34375 20.2796 4.34375 19.9999C4.34375 19.7203 4.4104 19.4446 4.53818 19.1958C4.66595 18.947 4.85118 18.7323 5.0785 18.5694C5.30582 18.4065 5.5687 18.3001 5.84534 18.259C6.12199 18.2179 6.40443 18.2434 6.66928 18.3333ZM18.3359 33.3333L20.0026 28.4433L21.6693 33.3333C21.7591 33.5981 21.7846 33.8805 21.7435 34.1572C21.7025 34.4338 21.5961 34.6967 21.4332 34.924C21.2702 35.1514 21.0555 35.3366 20.8067 35.4644C20.5579 35.5921 20.2823 35.6588 20.0026 35.6588C19.7229 35.6588 19.4473 35.5921 19.1985 35.4644C18.9497 35.3366 18.735 35.1514 18.5721 34.924C18.4091 34.6967 18.3027 34.4338 18.2617 34.1572C18.2206 33.8805 18.2461 33.5981 18.3359 33.3333ZM33.3359 21.6633L28.4459 19.9966L33.3359 18.3299C33.6008 18.2401 33.8832 18.2146 34.1599 18.2557C34.4365 18.2967 34.6994 18.4031 34.9267 18.566C35.154 18.729 35.3393 18.9437 35.467 19.1925C35.5948 19.4413 35.6615 19.7169 35.6615 19.9966C35.6615 20.2763 35.5948 20.5519 35.467 20.8007C35.3393 21.0495 35.154 21.2642 34.9267 21.4271C34.6994 21.5901 34.4365 21.6965 34.1599 21.7375C33.8832 21.7786 33.6008 21.7531 33.3359 21.6633ZM11.7526 9.39326L14.0309 14.0283L9.39595 11.7499C9.14406 11.6267 8.92524 11.4451 8.75767 11.2202C8.59011 10.9954 8.47863 10.7338 8.43253 10.4572C8.38642 10.1806 8.40701 9.89697 8.49258 9.62993C8.57816 9.36289 8.72624 9.12013 8.92453 8.92184C9.12282 8.72356 9.36557 8.57547 9.63262 8.4899C9.89966 8.40432 10.1833 8.38373 10.4599 8.42984C10.7365 8.47595 10.9981 8.58742 11.2229 8.75499C11.4478 8.92255 11.6294 9.14138 11.7526 9.39326ZM9.39595 28.2483L14.0309 25.9699L11.7526 30.6049C11.6294 30.8568 11.4478 31.0756 11.2229 31.2432C10.9981 31.4108 10.7365 31.5222 10.4599 31.5683C10.1833 31.6145 9.89966 31.5939 9.63262 31.5083C9.36557 31.4227 9.12282 31.2746 8.92453 31.0763C8.72624 30.8781 8.57816 30.6353 8.49258 30.3683C8.40701 30.1012 8.38642 29.8176 8.43253 29.541C8.47863 29.2644 8.59011 29.0028 8.75767 28.7779C8.92524 28.5531 9.14406 28.3715 9.39595 28.2483ZM28.2509 30.6049L25.9726 25.9699L30.6076 28.2483C30.8595 28.3715 31.0783 28.5531 31.2459 28.7779C31.4135 29.0028 31.5249 29.2644 31.571 29.541C31.6171 29.8176 31.5965 30.1012 31.511 30.3683C31.4254 30.6353 31.2773 30.8781 31.079 31.0763C30.8807 31.2746 30.638 31.4227 30.3709 31.5083C30.1039 31.5939 29.8203 31.6145 29.5437 31.5683C29.2671 31.5222 29.0055 31.4108 28.7806 31.2432C28.5558 31.0756 28.3742 30.8568 28.2509 30.6049ZM30.6059 11.7466L25.9693 14.0266L28.2493 9.38993C28.3725 9.13804 28.5541 8.91922 28.779 8.75165C29.0038 8.58409 29.2654 8.47262 29.542 8.42651C29.8186 8.3804 30.1022 8.40099 30.3693 8.48657C30.6363 8.57214 30.8791 8.72023 31.0774 8.91851C31.2756 9.1168 31.4237 9.35955 31.5093 9.6266C31.5949 9.89364 31.6155 10.1773 31.5694 10.4539C31.5233 10.7305 31.4118 10.9921 31.2442 11.2169C31.0766 11.4417 30.8578 11.6233 30.6059 11.7466ZM20.0026 27.4999C15.8676 27.4999 12.5026 24.1349 12.5026 19.9999C12.5026 15.8649 15.8676 12.4999 20.0026 12.4999C24.1376 12.4999 27.5026 15.8649 27.5026 19.9999C27.5026 24.1349 24.1376 27.4999 20.0026 27.4999ZM20.0026 15.8333C17.7043 15.8333 15.8359 17.7016 15.8359 19.9999C15.8359 22.2983 17.7043 24.1666 20.0026 24.1666C22.3009 24.1666 24.1693 22.2983 24.1693 19.9999C24.1693 17.7016 22.3009 15.8333 20.0026 15.8333Z" fill="white"/>
</svg>
