<svg width="183" height="203" viewBox="0 0 183 203" fill="none" xmlns="http://www.w3.org/2000/svg">
<g opacity="0.2">
<path fill-rule="evenodd" clip-rule="evenodd" d="M182.7 203H0V0H182.7V203ZM3.09998 199.556H179.6V3.55557H3.09998V199.556Z" fill="#C2C9C9" fill-opacity="0.5"/>
<path d="M159.502 119.333L117.102 1.22226L120.002 0L162.302 118L159.502 119.333Z" fill="#C2C9C9" fill-opacity="0.5"/>
<path d="M105.199 188.444L1.19922 160.333L1.89923 157L105.899 185.111L105.199 188.444Z" fill="#C2C9C9" fill-opacity="0.5"/>
<path d="M133.498 132L44.8984 2.77782L47.3984 0.777832L135.898 129.889L133.498 132Z" fill="#C2C9C9" fill-opacity="0.5"/>
<path d="M113.202 161.556L0.601562 64.3334L2.50159 61.5557L115.102 158.889L113.202 161.556Z" fill="#C2C9C9" fill-opacity="0.5"/>
<path d="M105.6 201.333H102.5C102.5 153.111 137.8 114 181.1 114V117.444C139.5 117.444 105.6 155 105.6 201.333Z" fill="#C2C9C9" fill-opacity="0.5"/>
<path d="M131.1 201.333H128C128 168.778 151.8 142.222 181.1 142.222V145.667C153.5 145.667 131.1 170.667 131.1 201.333Z" fill="#C2C9C9" fill-opacity="0.5"/>
<path d="M156.6 201.333H153.5C153.5 184.333 165.9 170.556 181.1 170.556V174C167.6 174 156.6 186.222 156.6 201.333Z" fill="#C2C9C9" fill-opacity="0.5"/>
</g>
</svg>
